# ProBuilder 4.5.2
# https://unity3d.com/unity/features/worldbuilding/probuilder
# 12/28/2021 12:50:03 AM

mtllib ./Arrow.mtl
o Arrow

g Arrow
v 0 -1 0.5
v 0.25 -1 0.5
v 0.25 -1 -0.5
v 0 -1 -0.5
v -0.25 -1 0.5
v -0.25 -1 -0.5
v 0.25 0 0.5
v -0.25 0 0.5
v 0 1 0.5
v 0.5 0 0.5
v -0.5 0 0.5
v 0 0 0.5
v 0 1 -0.5
v -0.5 0 -0.5
v -0.25 0 -0.5
v 0 0 -0.5
v 0.25 0 -0.5
v 0.5 0 -0.5

vt -0.5 0
vt -0.25 0
vt -0.25 -1
vt -0.5 -1
vt -0.75 0
vt -0.75 -1
vt -0.25 1
vt -0.75 1
vt -0.5 2
vt 0 1
vt -1 1
vt -0.5 1
vt 0.5 2
vt 1 1
vt 0.75 1
vt 0.5 1
vt 0.25 1
vt 0.25 0
vt 0.5 0
vt 0.75 0
vt -1 2.05999
vt 0 1.240081
vt -1 1.240081
vt 0 2.05999
vt 1 0.9599666
vt 0 1.779876
vt 1 1.779876
vt 0 0.9599666
vt -1 1.170052
vt 0 0.2100859
vt -1 0.2100859
vt 0 1.170052
vt 1 0.889938
vt 0 -0.07002862
vt 0 0.889938
vt 1 -0.07002862

vn 0 -1 0
vn 0 0 1
vn 0 0 -1
vn -0.8944272 0.4472136 0
vn 0.8944272 0.4472136 0
vn -1 0 0
vn 1 0 0

usemtl ProBuilderDefault
f 8/8/2 5/5/2 1/1/2
f 7/7/2 10/10/2 9/9/2
f 8/8/2 9/9/2 11/11/2
f 15/15/3 14/14/3 13/13/3
f 16/16/3 15/15/3 13/13/3
f 3/3/1 2/2/1 1/1/1
f 1/1/1 4/4/1 3/3/1
f 4/4/1 1/1/1 5/5/1
f 5/5/1 6/6/1 4/4/1
f 1/1/2 2/2/2 7/7/2
f 7/7/2 8/8/2 1/1/2
f 12/12/2 7/7/2 9/9/2
f 9/9/2 8/8/2 12/12/2
f 17/17/3 16/16/3 13/13/3
f 13/13/3 18/10/3 17/17/3
f 4/19/3 16/16/3 17/17/3
f 17/17/3 3/18/3 4/19/3
f 6/20/3 15/15/3 16/16/3
f 16/16/3 4/19/3 6/20/3
f 13/21/4 14/23/4 11/22/4
f 11/22/4 9/24/4 13/21/4
f 18/25/5 13/27/5 9/26/5
f 9/26/5 10/28/5 18/25/5
f 15/29/6 6/31/6 5/30/6
f 5/30/6 8/32/6 15/29/6
f 8/32/1 11/22/1 14/23/1
f 14/23/1 15/29/1 8/32/1
f 17/33/7 7/35/7 2/34/7
f 2/34/7 3/36/7 17/33/7
f 10/28/1 7/35/1 17/33/1
f 17/33/1 18/25/1 10/28/1

