# ProBuilder 4.5.2
# https://unity3d.com/unity/features/worldbuilding/probuilder
# 12/27/2021 7:40:09 PM

mtllib ./IBeam.mtl
o IBeam

g Cube
v -0.5 -1 0.45
v -0.5 -1 -0.45
v -0.5 1 0.45
v -0.5 1 -0.45
v 0.5 -1 -0.45
v 0.5 -1 0.45
v 0.5 1 -0.45
v 0.5 1 0.45
v -0.3 -1 0.5
v -0.45 -1 0.5
v -0.45 1 0.5
v -0.3 1 0.5
v 0.3 1 0.5
v 0.45 1 0.5
v 0.45 -1 0.5
v 0.3 -1 0.5
v 0.25 1 -0.25
v 0.25 1 0
v 0.25 1 0.25
v -0.25 1 0.25
v -0.25 1 0
v -0.25 1 -0.25
v -0.3 1 -0.5
v -0.45 1 -0.5
v -0.45 -1 -0.5
v -0.3 -1 -0.5
v 0.3 -1 -0.5
v 0.45 -1 -0.5
v 0.45 1 -0.5
v 0.3 1 -0.5
v 0.25 -1 0.25
v 0.25 -1 0
v 0.25 -1 -0.25
v -0.25 -1 -0.25
v -0.25 -1 0
v -0.25 -1 0.25
v -0.25 1 0.45
v -0.25 -1 0.45
v 0.25 -1 0.45
v 0.25 1 0.45
v 0.25 1 -0.45
v 0.25 -1 -0.45
v -0.25 1 -0.45
v -0.25 -1 -0.45

vt -0.05 0
vt -0.95 0
vt -0.05 2
vt -0.95 2
vt 0.95 0
vt 0.05 0
vt 0.95 2
vt 0.05 2
vt -0.8 0
vt -0.8 2
vt -0.2 2
vt -0.2 0
vt -0.25 -0.25
vt -0.25 0
vt -0.25 0.25
vt 0.25 0.25
vt 0.25 0
vt 0.25 -0.25
vt 0.8 2
vt 0.8 0
vt 0.2 0
vt 0.2 2
vt 0.25 2
vt 0.25 1
vt -0.25 1
vt -0.25 -1
vt 0.25 -1
vt -0.25 2
vt -0.75 2
vt -0.75 0
vt 0.75 2
vt 0.75 0
vt -0.5656855 1
vt -0.5656855 -1
vt -0.4949747 1
vt -0.4949747 -1
vt -0.03535535 1
vt -0.03535535 -1
vt 0.03535535 1
vt 0.03535535 -1
vt 0.5656855 -1
vt 0.5656855 1
vt 0.4949747 -1
vt 0.4949747 1
vt 0.3 -0.5
vt 0.25 -0.45
vt 0.25 0.45
vt 0.3 0.5
vt 0.45 0.5
vt 0.5 0.45
vt 0.5 -0.45
vt 0.45 -0.5
vt -0.3 0.5
vt -0.25 0.45
vt -0.25 -0.45
vt -0.3 -0.5
vt -0.45 -0.5
vt -0.5 -0.45
vt -0.5 0.45
vt -0.45 0.5

vn -1 0 0
vn 1 0 0
vn 0 0 1
vn 0 1 0
vn 0 0 -1
vn 0 -1 0
vn -0.7071068 0 -0.7071068
vn 0.7071068 0 -0.7071068
vn -0.7071068 0 0.7071068
vn 0.7071068 0 0.7071068

usemtl ProBuilderDefault
f 18/14/4 17/13/4 22/18/4
f 18/14/4 22/18/4 21/17/4
f 19/15/4 18/14/4 21/17/4
f 19/15/4 21/17/4 20/16/4
f 36/15/6 35/14/6 31/16/6
f 35/14/6 32/17/6 31/16/6
f 35/14/6 34/13/6 32/17/6
f 34/13/6 33/18/6 32/17/6
f 11/49/4 12/48/4 3/50/4
f 43/46/4 23/45/4 24/52/4
f 24/52/4 4/51/4 43/46/4
f 4/51/4 22/18/4 43/46/4
f 21/17/4 22/18/4 4/51/4
f 4/51/4 3/50/4 21/17/4
f 3/50/4 20/16/4 21/17/4
f 3/50/4 37/47/4 20/16/4
f 12/48/4 37/47/4 3/50/4
f 1/59/6 38/54/6 9/53/6
f 36/15/6 38/54/6 1/59/6
f 35/14/6 36/15/6 1/59/6
f 35/14/6 1/59/6 2/58/6
f 2/58/6 34/13/6 35/14/6
f 44/55/6 34/13/6 2/58/6
f 44/55/6 2/58/6 25/57/6
f 25/57/6 26/56/6 44/55/6
f 1/59/6 9/53/6 10/60/6
f 39/47/6 6/50/6 15/49/6
f 39/47/6 31/16/6 6/50/6
f 32/17/6 6/50/6 31/16/6
f 5/51/6 6/50/6 32/17/6
f 5/51/6 32/17/6 28/52/6
f 33/18/6 28/52/6 32/17/6
f 42/46/6 28/52/6 33/18/6
f 42/46/6 27/45/6 28/52/6
f 39/47/6 15/49/6 16/48/6
f 13/53/4 14/60/4 40/54/4
f 29/57/4 30/56/4 41/55/4
f 17/13/4 29/57/4 41/55/4
f 18/14/4 29/57/4 17/13/4
f 29/57/4 18/14/4 7/58/4
f 18/14/4 8/59/4 7/58/4
f 19/15/4 8/59/4 18/14/4
f 8/59/4 19/15/4 40/54/4
f 14/60/4 8/59/4 40/54/4
f 4/4/1 2/2/1 1/1/1
f 1/1/1 3/3/1 4/4/1
f 8/8/2 6/6/2 5/5/2
f 5/5/2 7/7/2 8/8/2
f 11/4/3 10/2/3 9/9/3
f 9/9/3 12/10/3 11/4/3
f 13/11/3 16/12/3 15/1/3
f 15/1/3 14/3/3 13/11/3
f 24/7/5 23/19/5 26/20/5
f 26/20/5 25/5/5 24/7/5
f 30/22/5 29/8/5 28/6/5
f 28/6/5 27/21/5 30/22/5
f 20/23/2 37/8/2 38/6/2
f 38/6/2 36/17/2 20/23/2
f 20/25/3 36/26/3 31/27/3
f 31/27/3 19/24/3 20/25/3
f 19/28/1 31/14/1 39/1/1
f 39/1/1 40/3/1 19/28/1
f 41/4/1 42/2/1 33/30/1
f 33/30/1 17/29/1 41/4/1
f 43/7/2 22/31/2 34/32/2
f 34/32/2 44/5/2 43/7/2
f 22/24/5 17/25/5 33/26/5
f 33/26/5 34/27/5 22/24/5
f 41/35/7 30/33/7 27/34/7
f 27/34/7 42/36/7 41/35/7
f 29/39/8 7/37/8 5/38/8
f 5/38/8 28/40/8 29/39/8
f 44/43/8 26/41/8 23/42/8
f 23/42/8 43/44/8 44/43/8
f 25/38/7 2/40/7 4/39/7
f 4/39/7 24/37/7 25/38/7
f 11/39/9 3/37/9 1/38/9
f 1/38/9 10/40/9 11/39/9
f 15/38/10 6/40/10 8/39/10
f 8/39/10 14/37/10 15/38/10
f 37/35/10 12/33/10 9/34/10
f 9/34/10 38/36/10 37/35/10
f 39/43/9 16/41/9 13/42/9
f 13/42/9 40/44/9 39/43/9

